<svg width="33" height="29" viewBox="0 0 33 29" fill="none" xmlns="http://www.w3.org/2000/svg">
<g clip-path="url(#clip0_29_57)">
<path d="M33 14.5C33 22.509 25.6137 29 16.5 29C7.38633 29 0 22.509 0 14.5C0 6.49102 7.38633 0 16.5 0C25.6137 0 33 6.49102 33 14.5ZM16.5 12.6875C17.6408 12.6875 18.5625 13.4975 18.5625 14.5C18.5625 15.5025 17.6408 16.3125 16.5 16.3125C15.3592 16.3125 14.4375 15.5025 14.4375 14.5C14.4375 13.4975 15.3592 12.6875 16.5 12.6875ZM10.3125 14.5C10.3125 17.502 13.084 19.9375 16.5 19.9375C19.916 19.9375 22.6875 17.502 22.6875 14.5C22.6875 11.498 19.916 9.0625 16.5 9.0625C13.084 9.0625 10.3125 11.498 10.3125 14.5ZM6.1875 13.5938C6.1875 11.6113 7.31543 9.5666 9.10078 7.99766C10.8861 6.42871 13.2129 5.4375 15.4688 5.4375C16.0359 5.4375 16.5 5.02969 16.5 4.53125C16.5 4.03281 16.0359 3.625 15.4688 3.625C12.5426 3.625 9.71953 4.88809 7.6377 6.71191C5.55586 8.53574 4.125 11.0223 4.125 13.5938C4.125 14.0922 4.58906 14.5 5.15625 14.5C5.72344 14.5 6.1875 14.0922 6.1875 13.5938Z" fill="black"/>
</g>
<defs>
<clipPath id="clip0_29_57">
<rect width="33" height="29" fill="white"/>
</clipPath>
</defs>
</svg>
