<svg width="43" height="36" viewBox="0 0 43 36" fill="none" xmlns="http://www.w3.org/2000/svg">
<path d="M20.4922 3.43283L21.4244 4.4172L22.4322 3.43447C25.2457 0.756145 29.1426 -0.462839 32.9723 0.159778C38.7588 1.1015 43 5.9922 43 11.7262V12.202C43 15.6063 41.5555 18.8629 39.0023 21.1844L23.8264 35.0231C23.1965 35.5973 22.365 35.9172 21.5 35.9172C20.635 35.9172 19.8035 35.5973 19.1736 35.0231L3.99682 21.1844C1.44705 18.8629 0 15.6063 0 12.202V11.7262C0 5.9922 4.24289 1.1015 10.0277 0.159778C13.7818 -0.462839 17.7543 0.756145 20.4922 3.43283ZM21.4244 9.98712L17.6451 6.14806C15.8227 4.44017 13.2359 3.6297 10.6912 4.04314C6.84893 4.66904 4.03125 7.91994 4.03125 11.7262V12.202C4.03125 14.5152 5.01471 16.7301 6.7473 18.3051L21.5 31.7582L36.2561 18.3051C37.9861 16.7301 38.9688 14.5152 38.9688 12.202V11.7262C38.9688 7.91994 36.1469 4.66904 32.3088 4.04314C29.7641 3.6297 27.1773 4.44017 25.3549 6.14806L21.4244 9.98712Z" fill="#D9D9D9"/>
</svg>
