<svg width="22" height="23" viewBox="0 0 22 23" fill="none" xmlns="http://www.w3.org/2000/svg">
<path d="M10.4844 2.12508L10.9613 2.73446L11.477 2.1261C12.9164 0.46809 14.9102 -0.286519 16.8695 0.0989103C19.8301 0.681879 22 3.70946 22 7.25907V7.5536C22 9.66102 21.2609 11.677 19.9547 13.1141L12.1902 21.6809C11.868 22.0364 11.4426 22.2345 11 22.2345C10.5574 22.2345 10.132 22.0364 9.80977 21.6809L2.04488 13.1141C0.740352 11.677 0 9.66102 0 7.5536V7.25907C0 3.70946 2.17078 0.681879 5.13047 0.0989103C7.05117 -0.286519 9.08359 0.46809 10.4844 2.12508C10.4457 2.12508 10.4844 2.12559 10.4844 2.12508ZM10.9613 6.1825L9.02773 3.80594C8.09531 2.74868 6.77187 2.24696 5.46992 2.5029C3.5041 2.89036 2.0625 4.90282 2.0625 7.25907V7.5536C2.0625 8.98563 2.56566 10.3567 3.45211 11.3317L11 19.6598L18.5496 11.3317C19.4348 10.3567 19.9375 8.98563 19.9375 7.5536V7.25907C19.9375 4.90282 18.4937 2.89036 16.5301 2.5029C15.2281 2.24696 13.9047 2.74868 12.9723 3.80594L10.9613 6.1825Z" fill="black"/>
</svg>
