<svg width="40" height="38" viewBox="0 0 40 38" fill="none" xmlns="http://www.w3.org/2000/svg">
<g clip-path="url(#clip0_29_77)">
<path d="M39.9861 18.9629C39.9861 20.2988 38.9444 21.3453 37.7639 21.3453H35.5417L35.5903 33.2352C35.5903 33.4355 35.5764 33.6359 35.5556 33.8363V35.0312C35.5556 36.6715 34.3125 38 32.7778 38H31.6667C31.5903 38 31.5139 38 31.4375 37.9926C31.3403 38 31.2431 38 31.1458 38H28.8889H27.2222C25.6875 38 24.4444 36.6715 24.4444 35.0312V33.25V28.5C24.4444 27.1863 23.4514 26.125 22.2222 26.125H17.7778C16.5486 26.125 15.5556 27.1863 15.5556 28.5V33.25V35.0312C15.5556 36.6715 14.3125 38 12.7778 38H11.1111H8.89583C8.79167 38 8.6875 37.9926 8.58333 37.9852C8.5 37.9926 8.41667 38 8.33333 38H7.22222C5.6875 38 4.44444 36.6715 4.44444 35.0312V26.7188C4.44444 26.652 4.44444 26.5777 4.45139 26.5109V21.3453H2.22222C0.972222 21.3453 0 20.3062 0 18.9629C0 18.2949 0.208333 17.7012 0.694444 17.1816L18.5 0.59375C18.9861 0.0742188 19.5417 0 20.0278 0C20.5139 0 21.0694 0.148438 21.4861 0.519531L39.2222 17.1816C39.7778 17.7012 40.0556 18.2949 39.9861 18.9629Z" fill="#D9D9D9"/>
</g>
<defs>
<clipPath id="clip0_29_77">
<rect width="40" height="38" fill="white"/>
</clipPath>
</defs>
</svg>
