<svg xmlns="http://www.w3.org/2000/svg" xmlns:xlink="http://www.w3.org/1999/xlink" width="500" zoomAndPan="magnify" viewBox="0 0 375 374.999991" height="500" preserveAspectRatio="xMidYMid meet" version="1.0"><defs><clipPath id="d1fe6d1a0b"><path d="M 0 0 L 150 0 L 150 150 L 0 150 Z M 0 0 " clip-rule="nonzero"/></clipPath></defs><g clip-path="url(#d1fe6d1a0b)"><path fill="#4f5061" d="M 150.007812 75 C 150.007812 116.425781 116.425781 150.007812 75 150.007812 C 33.574219 150.007812 -0.0078125 116.425781 -0.0078125 75 C -0.0078125 33.570312 33.574219 -0.0078125 75 -0.0078125 C 116.425781 -0.0078125 150.007812 33.570312 150.007812 75 " fill-opacity="1" fill-rule="nonzero"/><path stroke-linecap="butt" transform="matrix(0.0756048, 0, 0, -0.0756048, -85.735881, 235.735897)" fill="none" stroke-linejoin="miter" d="M 2969.303367 2126.000216 C 2969.303367 1660.276865 2591.723352 1282.696851 2126.000001 1282.696851 C 1660.27665 1282.696851 1282.799969 1660.276865 1282.799969 2126.000216 C 1282.799969 2591.723567 1660.27665 2969.200248 2126.000001 2969.200248 C 2591.723352 2969.200248 2969.303367 2591.723567 2969.303367 2126.000216 Z M 2969.303367 2126.000216 " stroke="#423f45" stroke-width="20" stroke-opacity="1" stroke-miterlimit="10"/><path stroke-linecap="butt" transform="matrix(0.0756048, 0, 0, -0.0756048, -85.735881, 235.735897)" fill="none" stroke-linejoin="miter" d="M 3015.080035 2126.000216 C 3015.080035 1635.011864 2616.988353 1236.920182 2126.000001 1236.920182 C 1635.011649 1236.920182 1237.023301 1635.011864 1237.023301 2126.000216 C 1237.023301 2616.988568 1635.011649 3014.976917 2126.000001 3014.976917 C 2616.988353 3014.976917 3015.080035 2616.988568 3015.080035 2126.000216 Z M 3015.080035 2126.000216 " stroke="#423f45" stroke-width="20" stroke-opacity="1" stroke-miterlimit="10"/><path stroke-linecap="butt" transform="matrix(0.0756048, 0, 0, -0.0756048, -85.735881, 235.735897)" fill="none" stroke-linejoin="miter" d="M 2854.706695 2126.000216 C 2854.706695 1723.516867 2528.48335 1397.293522 2126.000001 1397.293522 C 1723.619986 1397.293522 1397.293307 1723.516867 1397.293307 2126.000216 C 1397.293307 2528.380231 1723.619986 2854.70691 2126.000001 2854.70691 C 2528.48335 2854.70691 2854.706695 2528.380231 2854.706695 2126.000216 Z M 2854.706695 2126.000216 " stroke="#423f45" stroke-width="20" stroke-opacity="1" stroke-miterlimit="10"/><path stroke-linecap="butt" transform="matrix(0.0756048, 0, 0, -0.0756048, -85.735881, 235.735897)" fill="none" stroke-linejoin="miter" d="M 2908.181698 2126.000216 C 2908.181698 1694.0152 2557.985018 1343.81852 2126.000001 1343.81852 C 1694.014985 1343.81852 1343.818305 1694.0152 1343.818305 2126.000216 C 1343.818305 2557.985232 1694.014985 2908.181912 2126.000001 2908.181912 C 2557.985018 2908.181912 2908.181698 2557.985232 2908.181698 2126.000216 Z M 2908.181698 2126.000216 " stroke="#423f45" stroke-width="20" stroke-opacity="1" stroke-miterlimit="10"/></g><path stroke-linecap="butt" transform="matrix(0.0756048, 0, 0, -0.0756048, -85.735881, 235.735897)" fill="none" stroke-linejoin="miter" d="M 2793.22336 2126.000216 C 2793.22336 1757.513535 2494.486682 1458.776857 2126.000001 1458.776857 C 1757.51332 1458.776857 1458.776642 1757.513535 1458.776642 2126.000216 C 1458.776642 2494.486897 1757.51332 2793.223575 2126.000001 2793.223575 C 2494.486682 2793.223575 2793.22336 2494.486897 2793.22336 2126.000216 Z M 2793.22336 2126.000216 " stroke="#423f45" stroke-width="20" stroke-opacity="1" stroke-miterlimit="10"/><path stroke-linecap="butt" transform="matrix(0.0756048, 0, 0, -0.0756048, -85.735881, 235.735897)" fill="none" stroke-linejoin="miter" d="M 2718.823357 2126.000216 C 2718.823357 1798.588537 2453.41168 1533.17686 2126.000001 1533.17686 C 1798.588322 1533.17686 1533.176645 1798.588537 1533.176645 2126.000216 C 1533.176645 2453.411895 1798.588322 2718.823572 2126.000001 2718.823572 C 2453.41168 2718.823572 2718.823357 2453.411895 2718.823357 2126.000216 Z M 2718.823357 2126.000216 " stroke="#423f45" stroke-width="20" stroke-opacity="1" stroke-miterlimit="10"/><path stroke-linecap="butt" transform="matrix(0.0756048, 0, 0, -0.0756048, -85.735881, 235.735897)" fill="none" stroke-linejoin="miter" d="M 2653.620021 2126.000216 C 2653.620021 1834.600205 2417.400012 1598.380196 2126.000001 1598.380196 C 1834.59999 1598.380196 1598.379981 1834.600205 1598.379981 2126.000216 C 1598.379981 2417.400227 1834.59999 2653.620236 2126.000001 2653.620236 C 2417.400012 2653.620236 2653.620021 2417.400227 2653.620021 2126.000216 Z M 2653.620021 2126.000216 " stroke="#423f45" stroke-width="20" stroke-opacity="1" stroke-miterlimit="10"/><path stroke-linecap="butt" transform="matrix(0.0756048, 0, 0, -0.0756048, -85.735881, 235.735897)" fill="none" stroke-linejoin="miter" d="M 2577.308352 2126.000216 C 2577.308352 1876.811873 2375.188344 1674.691866 2126.000001 1674.691866 C 1876.811658 1674.691866 1674.794984 1876.811873 1674.794984 2126.000216 C 1674.794984 2375.188559 1876.811658 2577.205233 2126.000001 2577.205233 C 2375.188344 2577.205233 2577.308352 2375.188559 2577.308352 2126.000216 Z M 2577.308352 2126.000216 " stroke="#423f45" stroke-width="20" stroke-opacity="1" stroke-miterlimit="10"/><path fill="#fabd84" d="M 95.890625 75 C 95.890625 86.539062 86.539062 95.890625 75 95.890625 C 63.460938 95.890625 54.101562 86.539062 54.101562 75 C 54.101562 63.460938 63.460938 54.101562 75 54.101562 C 86.539062 54.101562 95.890625 63.460938 95.890625 75 " fill-opacity="1" fill-rule="nonzero"/><path fill="#4f5061" d="M 83.105469 75 C 83.105469 79.476562 79.476562 83.105469 75 83.105469 C 70.523438 83.105469 66.894531 79.476562 66.894531 75 C 66.894531 70.523438 70.523438 66.894531 75 66.894531 C 79.476562 66.894531 83.105469 70.523438 83.105469 75 " fill-opacity="1" fill-rule="nonzero"/><path fill="#ffffff" d="M 78.960938 75 C 78.960938 77.191406 77.191406 78.960938 75 78.960938 C 72.816406 78.960938 71.039062 77.191406 71.039062 75 C 71.039062 72.808594 72.816406 71.039062 75 71.039062 C 77.191406 71.039062 78.960938 72.808594 78.960938 75 " fill-opacity="1" fill-rule="nonzero"/></svg>