<svg xmlns="http://www.w3.org/2000/svg" xmlns:xlink="http://www.w3.org/1999/xlink" width="500" zoomAndPan="magnify" viewBox="0 0 375 374.999991" height="500" preserveAspectRatio="xMidYMid meet" version="1.0"><path fill="#4f5061" d="M 375.019531 187.5 C 375.019531 291.058594 291.058594 375.019531 187.5 375.019531 C 83.941406 375.019531 -0.0195312 291.058594 -0.0195312 187.5 C -0.0195312 83.921875 83.941406 -0.0195312 187.5 -0.0195312 C 291.058594 -0.0195312 375.019531 83.921875 375.019531 187.5 " fill-opacity="1" fill-rule="nonzero"/><path stroke-linecap="butt" transform="matrix(0.189012, 0, 0, -0.189012, -214.339712, 589.339713)" fill="none" stroke-linejoin="miter" d="M 2969.303547 2126.000152 C 2969.303547 1660.297447 2591.702849 1282.696749 2126.000144 1282.696749 C 1660.297439 1282.696749 1282.800074 1660.297447 1282.800074 2126.000152 C 1282.800074 2591.702857 1660.297439 2969.200221 2126.000144 2969.200221 C 2591.702849 2969.200221 2969.303547 2591.702857 2969.303547 2126.000152 Z M 2969.303547 2126.000152 " stroke="#423f45" stroke-width="20" stroke-opacity="1" stroke-miterlimit="10"/><path stroke-linecap="butt" transform="matrix(0.189012, 0, 0, -0.189012, -214.339712, 589.339713)" fill="none" stroke-linejoin="miter" d="M 3015.100884 2126.000152 C 3015.100884 1635.001445 2616.998851 1236.899412 2126.000144 1236.899412 C 1635.001437 1236.899412 1237.002737 1635.001445 1237.002737 2126.000152 C 1237.002737 2616.998859 1635.001437 3014.997558 2126.000144 3014.997558 C 2616.998851 3014.997558 3015.100884 2616.998859 3015.100884 2126.000152 Z M 3015.100884 2126.000152 " stroke="#423f45" stroke-width="20" stroke-opacity="1" stroke-miterlimit="10"/><path stroke-linecap="butt" transform="matrix(0.189012, 0, 0, -0.189012, -214.339712, 589.339713)" fill="none" stroke-linejoin="miter" d="M 2854.706871 2126.000152 C 2854.706871 1723.496119 2528.504177 1397.293425 2126.000144 1397.293425 C 1723.599444 1397.293425 1397.293417 1723.496119 1397.293417 2126.000152 C 1397.293417 2528.400852 1723.599444 2854.706879 2126.000144 2854.706879 C 2528.504177 2854.706879 2854.706871 2528.400852 2854.706871 2126.000152 Z M 2854.706871 2126.000152 " stroke="#423f45" stroke-width="20" stroke-opacity="1" stroke-miterlimit="10"/><path stroke-linecap="butt" transform="matrix(0.189012, 0, 0, -0.189012, -214.339712, 589.339713)" fill="none" stroke-linejoin="miter" d="M 2908.192209 2126.000152 C 2908.192209 1694.004783 2557.995513 1343.808087 2126.000144 1343.808087 C 1694.004775 1343.808087 1343.80808 1694.004783 1343.80808 2126.000152 C 1343.80808 2557.995521 1694.004775 2908.192216 2126.000144 2908.192216 C 2557.995513 2908.192216 2908.192209 2557.995521 2908.192209 2126.000152 Z M 2908.192209 2126.000152 " stroke="#423f45" stroke-width="20" stroke-opacity="1" stroke-miterlimit="10"/><path stroke-linecap="butt" transform="matrix(0.189012, 0, 0, -0.189012, -214.339712, 589.339713)" fill="none" stroke-linejoin="miter" d="M 2793.202866 2126.000152 C 2793.202866 1757.492788 2494.507508 1458.79743 2126.000144 1458.79743 C 1757.49278 1458.79743 1458.797422 1757.492788 1458.797422 2126.000152 C 1458.797422 2494.507516 1757.49278 2793.202873 2126.000144 2793.202873 C 2494.507508 2793.202873 2793.202866 2494.507516 2793.202866 2126.000152 Z M 2793.202866 2126.000152 " stroke="#423f45" stroke-width="20" stroke-opacity="1" stroke-miterlimit="10"/><path stroke-linecap="butt" transform="matrix(0.189012, 0, 0, -0.189012, -214.339712, 589.339713)" fill="none" stroke-linejoin="miter" d="M 2718.80286 2126.000152 C 2718.80286 1798.598791 2453.401504 1533.197436 2126.000144 1533.197436 C 1798.598784 1533.197436 1533.197428 1798.598791 1533.197428 2126.000152 C 1533.197428 2453.401512 1798.598784 2718.802867 2126.000144 2718.802867 C 2453.401504 2718.802867 2718.80286 2453.401512 2718.80286 2126.000152 Z M 2718.80286 2126.000152 " stroke="#423f45" stroke-width="20" stroke-opacity="1" stroke-miterlimit="10"/><path stroke-linecap="butt" transform="matrix(0.189012, 0, 0, -0.189012, -214.339712, 589.339713)" fill="none" stroke-linejoin="miter" d="M 2653.599521 2126.000152 C 2653.599521 1834.600128 2417.400168 1598.400775 2126.000144 1598.400775 C 1834.60012 1598.400775 1598.400767 1834.600128 1598.400767 2126.000152 C 1598.400767 2417.400176 1834.60012 2653.599529 2126.000144 2653.599529 C 2417.400168 2653.599529 2653.599521 2417.400176 2653.599521 2126.000152 Z M 2653.599521 2126.000152 " stroke="#423f45" stroke-width="20" stroke-opacity="1" stroke-miterlimit="10"/><path stroke-linecap="butt" transform="matrix(0.189012, 0, 0, -0.189012, -214.339712, 589.339713)" fill="none" stroke-linejoin="miter" d="M 2577.298181 2126.000152 C 2577.298181 1876.801465 2375.198831 1674.702115 2126.000144 1674.702115 C 1876.801457 1674.702115 1674.80544 1876.801465 1674.80544 2126.000152 C 1674.80544 2375.198839 1876.801457 2577.194856 2126.000144 2577.194856 C 2375.198831 2577.194856 2577.298181 2375.198839 2577.298181 2126.000152 Z M 2577.298181 2126.000152 " stroke="#423f45" stroke-width="20" stroke-opacity="1" stroke-miterlimit="10"/><path fill="#fabd84" d="M 239.722656 187.5 C 239.722656 216.34375 216.34375 239.722656 187.5 239.722656 C 158.65625 239.722656 135.257812 216.34375 135.257812 187.5 C 135.257812 158.65625 158.65625 135.257812 187.5 135.257812 C 216.34375 135.257812 239.722656 158.65625 239.722656 187.5 " fill-opacity="1" fill-rule="nonzero"/><path fill="#4f5061" d="M 207.761719 187.5 C 207.761719 198.691406 198.691406 207.761719 187.5 207.761719 C 176.308594 207.761719 167.238281 198.691406 167.238281 187.5 C 167.238281 176.308594 176.308594 167.238281 187.5 167.238281 C 198.691406 167.238281 207.761719 176.308594 207.761719 187.5 " fill-opacity="1" fill-rule="nonzero"/><path fill="#ffffff" d="M 197.402344 187.5 C 197.402344 192.980469 192.980469 197.402344 187.5 197.402344 C 182.039062 197.402344 177.597656 192.980469 177.597656 187.5 C 177.597656 182.019531 182.039062 177.597656 187.5 177.597656 C 192.980469 177.597656 197.402344 182.019531 197.402344 187.5 " fill-opacity="1" fill-rule="nonzero"/></svg>