<svg width="35" height="36" viewBox="0 0 35 36" fill="none" xmlns="http://www.w3.org/2000/svg">
<g clip-path="url(#clip0_29_23)">
<path d="M10.5625 1.24453C10.9844 0.478125 11.8516 0 12.7969 0H22.2031C23.1484 0 24.0156 0.478125 24.4375 1.24453L25 2.25H32.5C33.8828 2.25 35 3.25547 35 4.5C35 5.74453 33.8828 6.75 32.5 6.75H2.5C1.11719 6.75 0 5.74453 0 4.5C0 3.25547 1.11719 2.25 2.5 2.25H10L10.5625 1.24453ZM2.5 9H32.5V31.5C32.5 33.982 30.2578 36 27.5 36H7.5C4.74219 36 2.5 33.982 2.5 31.5V9ZM10 13.5C9.3125 13.5 8.75 14.0063 8.75 14.625V30.375C8.75 30.9937 9.3125 31.5 10 31.5C10.6875 31.5 11.25 30.9937 11.25 30.375V14.625C11.25 14.0063 10.6875 13.5 10 13.5ZM17.5 13.5C16.8125 13.5 16.25 14.0063 16.25 14.625V30.375C16.25 30.9937 16.8125 31.5 17.5 31.5C18.1875 31.5 18.75 30.9937 18.75 30.375V14.625C18.75 14.0063 18.1875 13.5 17.5 13.5ZM25 13.5C24.3125 13.5 23.75 14.0063 23.75 14.625V30.375C23.75 30.9937 24.3125 31.5 25 31.5C25.6875 31.5 26.25 30.9937 26.25 30.375V14.625C26.25 14.0063 25.6875 13.5 25 13.5Z" fill="black"/>
</g>
<defs>
<clipPath id="clip0_29_23">
<rect width="35" height="36" fill="white"/>
</clipPath>
</defs>
</svg>
